<?xml version="1.0" encoding="utf-8"?>
<!-- Generator: Adobe Illustrator 28.3.0, SVG Export Plug-In . SVG Version: 6.00 Build 0)  -->
<svg version="1.1" id="Layer_1" xmlns="http://www.w3.org/2000/svg" xmlns:xlink="http://www.w3.org/1999/xlink" x="0px" y="0px"
	 viewBox="0 0 1080 378" style="enable-background:new 0 0 1080 378;" xml:space="preserve">
<style type="text/css">
	.st0{fill:#707070;}
	.st1{fill:#C5C5C5;}
</style>
<g>
	<g>
		<path d="M399.5,153.6c0-19.4-0.4-35.3-1.6-50.8h29.9l1.6,30.3h1.2c10.5-17.8,27.9-34.5,59-34.5c25.6,0,45,15.5,53.1,37.6h0.8
			c5.8-10.5,13.2-18.6,20.9-24.4c11.2-8.5,23.7-13.2,41.5-13.2c24.8,0,61.7,16.3,61.7,81.5v110.6h-33.4V184.3
			c0-36.1-13.2-57.8-40.7-57.8c-19.4,0-34.5,14.4-40.3,31c-1.6,4.7-2.7,10.9-2.7,17.1v116h-33.4V178.1c0-29.9-13.2-51.6-39.2-51.6
			c-21.3,0-36.9,17.1-42.3,34.1c-1.9,5-2.7,10.9-2.7,16.7v113.3h-33.4V153.6z"/>
		<path d="M827.1,290.5l-2.7-23.7h-1.2c-10.5,14.7-30.6,27.9-57.4,27.9c-38,0-57.4-26.8-57.4-53.9c0-45.4,40.3-70.2,112.9-69.8v-3.9
			c0-15.5-4.3-43.4-42.7-43.4c-17.5,0-35.7,5.4-48.9,14l-7.8-22.5c15.5-10.1,38-16.7,61.7-16.7c57.4,0,71.4,39.2,71.4,76.8v70.2
			c0,16.3,0.8,32.2,3.1,45H827.1z M822,194.7c-37.2-0.8-79.5,5.8-79.5,42.3c0,22.1,14.7,32.6,32.2,32.6c24.4,0,40-15.5,45.4-31.4
			c1.2-3.5,1.9-7.4,1.9-10.9V194.7z"/>
		<path d="M1071.9,102.8c-0.8,13.6-1.6,28.7-1.6,51.6v109c0,43.1-8.5,69.4-26.8,85.7c-18.2,17.1-44.6,22.5-68.3,22.5
			c-22.5,0-47.3-5.4-62.5-15.5l8.5-26c12.4,7.8,31.8,14.7,55.1,14.7c34.9,0,60.5-18.2,60.5-65.6v-20.9h-0.8
			c-10.5,17.4-30.6,31.4-59.7,31.4c-46.6,0-79.9-39.6-79.9-91.6c0-63.6,41.5-99.7,84.6-99.7c32.6,0,50.4,17.1,58.6,32.6h0.8
			l1.6-28.3H1071.9z M1036.6,176.9c0-5.8-0.4-10.9-1.9-15.5c-6.2-19.8-22.9-36.1-47.7-36.1c-32.6,0-55.9,27.5-55.9,71
			c0,36.9,18.6,67.5,55.5,67.5c20.9,0,40-13.2,47.3-34.9c1.9-5.8,2.7-12.4,2.7-18.2V176.9z"/>
	</g>
	<g>
		<circle class="st0" cx="168.4" cy="166.7" r="160.3"/>
		<path class="st1" d="M248.6,28c-47.9,27.7-80.2,79.4-80.2,138.7c0,59.3,32.3,111,80.2,138.7c47.9-27.7,80.2-79.4,80.2-138.7
			C328.7,107.4,296.4,55.7,248.6,28z"/>
	</g>
</g>
</svg>
